<?xml version="1.0" encoding="utf-8"?>
<!-- Generator: Adobe Illustrator 16.0.0, SVG Export Plug-In . SVG Version: 6.00 Build 0)  -->
<!DOCTYPE svg PUBLIC "-//W3C//DTD SVG 1.1//EN" "http://www.w3.org/Graphics/SVG/1.1/DTD/svg11.dtd">
<svg version="1.1" id="Layer_1" xmlns="http://www.w3.org/2000/svg" xmlns:xlink="http://www.w3.org/1999/xlink" x="0px" y="0px"
	 width="395.326px" height="329.859px" viewBox="0 0 395.326 329.859" enable-background="new 0 0 395.326 329.859"
	 xml:space="preserve">
<g>
	<path fill="#FFC222" d="M197.663,329.859c-82.492,0-151.031-60.879-163.055-140.062c-5.474,0.52-10.944,1.043-16.378,1.617
		c-8.135,0.852-17.544-5.94-17.544-16.381C0.669,175.111,0,98.553,0,98.553c0-8.021,5.605-15.439,15.307-16.496
		c2.055-0.224,28.021-2.784,42.194-3.921C86.625,31.275,138.547,0,197.663,0s111.038,31.275,140.162,78.136
		c14.173,1.138,40.14,3.698,42.194,3.921c9.701,1.056,15.307,8.475,15.307,16.496c0,0-0.669,76.558-0.687,76.48
		c0,10.44-9.409,17.232-17.544,16.381c-5.434-0.574-10.904-1.098-16.378-1.617C348.694,268.98,280.155,329.859,197.663,329.859z"/>
	<g>
		<g>
			<g>
				<path d="M117.94,179.6h11.196l8.885,20.289l9.398-20.289h11.314l6.617,37.957h-11.373l-3.193-21.854h-0.115l-10.504,21.854
					h-4.525l-10.039-21.854h-0.117l-3.66,21.854h-11.315L117.94,179.6z"/>
				<path d="M190.245,217.557H178.87V179.6h11.375V217.557z"/>
				<path d="M217.744,209.195h13.639v8.361h-25.01V179.6h11.371V209.195z"/>
				<path d="M269.051,179.6h14.098l-17.413,17.971l18.974,19.986h-14.734l-14.678-16.461h-0.122v16.461h-11.369V179.6h11.369v15.654
					h0.122L269.051,179.6z"/>
			</g>
			<g>
				<path d="M151.606,76.31l-5.414-11.396h-2.541V76.31h-7.521V45.692h12.119c6.795,0,10.453,4.82,10.453,9.845
					c0,4.177-2.584,6.797-4.988,8l6.621,12.772H151.606z M147.907,52.444h-4.256v6.196h4.256c2.062,0,3.271-1.506,3.271-3.103
					C151.179,53.953,149.97,52.444,147.907,52.444z"/>
				<path d="M170.827,76.31V45.692h20.812v6.711h-13.285v5.114h11.352v6.71h-11.352v5.377h13.285v6.705H170.827z"/>
				<path d="M220.746,76.31l-1.416-4.556h-9.42l-1.503,4.556h-7.865l11.133-30.618h5.801l11.147,30.618H220.746z M214.771,57.302
					l-2.751,8.171h5.332L214.771,57.302z"/>
				<path d="M238.38,76.31V45.692h7.522v23.913h12.859v6.705H238.38z"/>
			</g>
			<path d="M384.62,98.454c0-3.167-2.567-5.735-5.73-5.735l-0.002-0.037c-15.543-1.655-31.346-3.098-47.368-4.333
				c-26.631-46.369-76.655-77.666-133.856-77.666c-57.193,0-107.219,31.295-133.852,77.661c-16.046,1.236-31.871,2.681-47.436,4.338
				v0.037c-3.169,0-5.734,2.568-5.734,5.735l-0.019,0.009l0.668,76.561l0.012,0.01c0,3.166,2.569,5.73,5.733,5.73l0.003,0.027
				c8.9-0.943,17.894-1.811,26.955-2.619c6.739,78.877,73.084,141.008,153.669,141.008c80.59,0,146.928-62.127,153.669-141.002
				c9.04,0.807,18.012,1.672,26.893,2.613l0.001-0.027c3.167,0,5.731-2.564,5.731-5.73c0,0,0.014-0.01,0.018-0.01l0.664-76.561
				L384.62,98.454z M197.663,23.851c49.182,0,92.479,25.172,117.729,63.331c-38.142-2.573-77.499-3.939-117.763-3.956
				c-40.236,0.017-79.572,1.381-117.692,3.951C105.189,49.021,148.483,23.851,197.663,23.851z M172.425,285.586
				c-2.848,0.219-4.887,0.67-6.494,1.025c-0.744-0.555-1.584-1.16-1.738-1.453c-0.295-0.568-0.951-1.131-1.277-1.846
				c-0.328-0.715-0.328-2.734-0.299-4.104c0.07-3.322-0.047-4.896,0.893-6.512c0.535-0.922,1.279-3.658,1.842-4.252
				c0.566-0.594,1.881-2.852,1.881-2.852c0.635,1.283,1.459,0.857,2.254,1.426c0,0-0.357,1.395-0.744,2.02
				c-0.385,0.623-0.059,1.221,0.262,1.873c0.318,0.656,3.486,12.818,3.523,13.227C172.567,284.598,172.491,285.115,172.425,285.586z
				 M211.355,286.436c0.088,0.068,0.172,0.1,0.254,0.113c-8.942-0.121-8.428,2.902-20.079,0.633
				c-6.354-1.236-11.201-1.686-14.986-1.725c-0.879-1.383-2.32-8.125-2.209-9.756c0.109-1.674,0.355-3.92,0.4-4.564
				c0.043-0.648,1.203-3.035,1.471-3.502c0.268-0.469,0.625-0.336,0.604,0.199c-0.023,0.535-0.068,1.383,0.406,1.459
				c0.477,0.074,0.842-1.504,1.02-1.926c0.18-0.426,1.074-1.061,1.074-1.061c0.244,0.312-0.025,1.596,0.645,1.617
				c0.246,0.008,0.4-0.244,0.467-0.535c0.391-1.689,0.279-1.697,1.791-2.453c0.834-0.416,2.975-2.912,2.975-2.912
				c10.93,4.682,20.147-1.861,27.058,1.607c0,0,0.15,4.221-0.041,5.656c-0.195,1.436,0.102,2.578,0.369,4.541
				c0.269,1.961-1.067,7.314-1.395,8.057c-0.328,0.746-0.713,0.924-0.77,1.283c-0.056,0.361,0.77,0.205,1.097,0.801
				c0.327,0.592-0.118,1.16-0.267,1.428C211.089,285.664,210.94,286.109,211.355,286.436z M211.802,286.551
				c0.231-0.041,0.439-0.193,0.624-0.174c0.112,0.01,0.194,0.096,0.276,0.201C212.394,286.566,212.091,286.557,211.802,286.551z
				 M217.356,286.955c-0.573-0.98-2.551-3.658-2.551-4.357c0-0.801-0.3-6.184,0.472-7.344c0.514-0.768,0.945-1.686,1.182-2.223
				c-0.107-0.193-0.209-0.346-0.287-0.453h0.479c0,0-0.072,0.18-0.191,0.453c0.307,0.551,0.662,1.436,0.662,2.58
				c0,1.16,0,5.531-0.324,6.244c-0.324,0.715-0.117,1.221-0.033,1.518c0.094,0.297-0.209,0.742-0.143,0.992
				c0.062,0.248,0.801,0.285,1.127,0.584s0.268,1.518,0.268,2.02c0,0.021,0.012,0.047,0.015,0.068
				C217.805,287.01,217.574,286.98,217.356,286.955z M318.633,237.555l-1.051-18.479l-6.767,18.072l-6.078-18.418l-1.853,19.205
				l-10.64-16.217l3.182,19.033l-14.472-12.912l7.996,17.561l-17.317-8.727l12.268,14.891l-18.991-3.947l15.709,11.209
				l-19.367,1.104l18.076,6.764l-18.422,6.08l19.21,1.852c-18.614,5.742-15.271,18.666-56.443,13.189
				c-0.207-0.482-1.244-1.191-1.523-1.498c-0.329-0.355-0.567-1.309-1.191-1.812c-0.44-0.359-0.772-1.549-0.714-2.141
				c0.061-0.596-0.624-3.301-0.445-5.592c0.062-0.803,0.059-1.311,0.387-1.844c0.326-0.537,0.119-0.895,0.477-1.457
				c0.355-0.568,0.416-1.547,0.416-2.676c0-1.133,0.891-6.307,0.891-6.307c2.095-0.232,4.13-1.523,5.064-3.701
				c0.134-0.312,1.229-1.314,2.521-3.279c1.295-1.961,2.097-7.672,2.388-8.162c0.289-0.49,1.001-3.836,1.18-4.215
				c0.178-0.379,2.004-2.543,3.08-4.082c1.068-1.539,0.488-1.43,1.492-2.543c1.004-1.115,2.564-0.514,2.989-0.334
				c0.423,0.178,6.56-0.045,7.228-0.225c0.668-0.178,1.984-0.98,2.297-0.98s0.959,0.225,1.493,0.199
				c0.534-0.02,1.519-0.848,1.696-1.18c0.178-0.336,0.425-0.336,0.734-0.594c0.312-0.258,0.627-1.102,0.627-1.838
				s-0.65-1.717-1.006-1.895c-0.355-0.18-1.34-0.158-1.805-0.291c-0.469-0.135-1.428-1.092-2.811-2.164
				c-1.384-1.07-4.183-2.734-4.372-3.145c-0.669-1.449-1.048-1.383-1.228-1.762c-0.268-0.559,0.111-0.848-0.09-1.248
				c-0.383-0.77-2.006,0.109-2.09,0.098c-0.081-0.014-1.255-0.812-1.791-1.436c-0.535-0.625-1.494-1.34-2.184-1.34
				c-0.545,0-0.869,0.402-0.753,1.086c0.12,0.682-0.294,0.795-0.208,1.096c0.09,0.301,0.359,0.746-0.178,1.016
				c-0.537,0.266-1.815,0.416-2.768,1.279c-0.949,0.861-6.072,4.469-12.447,5.373c-1.111,0.158-1.92-0.873-5.193-0.213
				c-4.747,0.957-30.319,1.775-32.876,1.488l-0.107-0.018c-0.713,0-2.453-0.578-5.264-0.713s-7.137-0.58-9.232-0.58
				c-2.957,0-5.1,1.332-6.066,2.543c-0.715,0.893-1.791,1.754-2.23,3.389c-0.312,1.16,0.312,10.928-0.357,14.541
				c-0.402,2.178-1.443,7.42-1.443,7.42c-0.424,0.109-1.812,0.209-2.459,2.463c-0.699,2.428-1.785,2.631-2.275,3.365
				c-0.531,0.799-0.703,1.953-0.703,1.953c0.357-1.006,1.553-2.061,2.223-2.371c-1.094,0.852-2.062,3.836-2.033,4.992
				c0.379-1.16,1.74-2.432,2.232-2.699c-1.293,1.236-2.59,3.703-2.564,5.307c0.346-0.492,0.883-1.199,0.883-1.199
				c0.037,0.271-0.166,0.965-0.166,0.965c0.383-0.236,1.141-0.826,1.141-0.826c-1.211,1.316-1.881,3.693-1.881,3.693
				c0.479-1.115,1.875-2.41,1.875-2.41c-1.07,1.277-1.518,5.131-1.518,5.131c0.133-0.58,1.158-3.094,2.898-4.373
				c2.352-1.727,2.453-3.789,2.543-4.549c0.088-0.758,0.715-2.051,1.738-4.504c1.027-2.455-0.58-4.059-0.58-4.059
				c0.314-1.518,0.666-3.795,1.162-7.941c0.463-3.898,0.941-6.49,0.736-9.479c-0.291-4.17,0.523-4.363,0.523-4.363
				c-0.357,2.186,0.656,7.465,0.969,9.07s-0.029,12.059-0.477,13.754c-0.445,1.695-1.547,3.865-2.141,4.699
				c-0.594,0.832-0.713,2.02-0.742,3.301c-0.029,1.277-0.119,13.41-0.447,13.855c-0.326,0.447-0.654,1.25-0.6,1.824
				c0.055,0.578,0.66,0.586,0.896,0.914c0.18,0.244,0.746,1.449,1.434,2.271c-7.318-1.656-22.686-11.008-54.031-13.939
				c-27.86-23.441-46.526-57.457-49.797-95.869c45.179-3.664,92.203-5.627,140.531-5.648c48.346,0.021,95.384,1.986,140.578,5.652
				C336.333,199.049,329.433,219.604,318.633,237.555z"/>
			<g>
				<path fill="#FFFFFF" d="M58.458,146.814c0,9.682-0.456,11.771-3.311,15.322c-2.941,3.541-7.616,5.567-12.957,5.729
					c-5.343,0.168-10.235-1.666-12.979-4.931c-2.843-3.569-3.297-5.427-3.297-15.022v-25.609c0-9.591,0.454-11.579,3.297-15.227
					c2.959-3.452,7.636-5.568,12.979-5.733c5.341-0.165,10.238,1.659,12.957,4.937c2.97,3.661,3.311,5.428,3.311,15.019v4.145
					l-10.234,0.316v-8.793c0-6.024-1.596-8.251-5.923-8.115c-4.544,0.14-6.141,2.36-6.141,8.595v34.693
					c0,6.129,1.597,8.352,5.917,8.228c4.551-0.145,6.146-2.373,6.146-8.595v-11.48l10.234-0.319V146.814z"/>
				<path fill="#FFFFFF" d="M75.738,152.494l-1.932,12.591l-9.682,0.741l10.373-66.802l12.125-0.806l12.211,65.331l-9.783,0.551
					l-2.394-12.217L75.738,152.494z M82.34,121.976l-0.906-6.469l-0.691-5.389l-0.447,5.254l-0.909,6.77l-2.617,22.094l8.636-0.482
					L82.34,121.976z"/>
				<polygon fill="#FFFFFF" points="116.798,154.421 133.183,153.706 133.183,161.905 106.67,163.06 106.67,97.086 116.798,96.571 
									"/>
				<polygon fill="#FFFFFF" points="151.942,161.452 141.706,161.711 141.706,95.617 151.942,95.363 				"/>
				<polygon fill="#FFFFFF" points="171.327,130.936 171.327,161.072 161.081,161.218 161.073,95.154 187.124,94.761 
					187.124,102.969 171.319,103.2 171.327,122.634 185.772,122.418 185.772,130.717 				"/>
				<path fill="#FFFFFF" d="M226.605,140.659c0,9.688-0.465,11.763-3.304,15.222c-2.954,3.459-7.62,5.338-12.971,5.338
					c-5.343,0-10.243-1.978-12.967-5.338c-2.836-3.651-3.293-5.533-3.293-15.119v-25.496c0-9.599,0.457-11.57,3.293-15.132
					c2.952-3.362,7.624-5.34,12.967-5.34c5.351,0,10.244,1.979,12.971,5.34c2.954,3.761,3.304,5.533,3.304,15.132V140.659z
					 M204.306,145.303c0,6.133,1.591,8.402,5.914,8.402c4.555,0,6.136-2.18,6.136-8.402v-34.586c0-6.133-1.581-8.408-5.912-8.408
					c-4.547,0-6.138,2.175-6.138,8.408V145.303z"/>
				<path fill="#FFFFFF" d="M252.736,95.417c6.605,0.155,8.873,0.797,10.696,3.207c1.708,2.415,2.384,6.165,2.384,12.486v4.744
					c0,8.998-1.584,11.621-7.621,12.379c6.146,1.616,7.621,4.322,7.621,13.912v8.203c0,5.64,0.537,8.097,2.02,11.785l-10.428-0.405
					c-1.141-2.978-1.827-7.763-1.827-12.9v-5.838c0-8.498-1.369-11.691-5.01-11.782l-4.425-0.092v30.238l-10.355-0.237V95.02
					L252.736,95.417z M246.03,123.693l6.017,0.146c2.966,0.164,3.534-0.904,3.534-6.736v-6.235c0-5.827-0.568-7.201-3.534-7.267
					l-6.017-0.136V123.693z"/>
				<polygon fill="#FFFFFF" points="295.821,163.431 282.701,111.726 283.048,115.996 283.617,122.246 283.846,126.303 
					284.912,162.912 275.346,162.484 275.34,96.362 285.919,96.842 296.815,137.671 297.729,141.369 298.516,145.057 
					299.09,147.464 298.857,143.697 298.166,135.458 297.836,130.403 297.074,97.426 306.939,98.009 306.989,164.137 				"/>
				<polygon fill="#FFFFFF" points="327.151,165.437 316.915,164.699 316.813,98.753 327.143,99.488 				"/>
				<path fill="#FFFFFF" d="M346.724,154.394l-1.954,12.493l-9.669-0.815l10.453-65.11l12.14,1.083l12.303,67.142l-9.87-0.928
					l-2.49-12.947L346.724,154.394z M353.312,124.807l-0.913-6.6l-0.672-5.489l-0.461,5.188l-0.908,6.654l-2.624,21.718l8.641,0.725
					L353.312,124.807z"/>
			</g>
			<g>
				<path fill="#FFFFFF" d="M313.792,245.045c-1.48-0.307-3.017-0.475-4.588-0.475c-12.357,0-22.37,10.018-22.37,22.371
					c0,2.266,0.343,4.451,0.971,6.514C297.703,265.225,306.455,255.662,313.792,245.045z"/>
			</g>
		</g>
	</g>
	<g>
		<path d="M371.443,196.193c3.781,0,7.152,2.719,7.152,6.947c0,4.247-3.371,6.984-7.152,6.984s-7.152-2.737-7.152-6.984
			C364.291,198.912,367.662,196.193,371.443,196.193z M371.443,208.637c2.887,0,5.252-2.311,5.252-5.496
			c0-3.166-2.365-5.457-5.252-5.457c-2.926,0-5.253,2.291-5.253,5.457C366.19,206.326,368.518,208.637,371.443,208.637z
			 M368.668,199.229h2.943c1.955,0,3.054,0.614,3.054,2.31c0,1.435-0.896,1.992-2.05,2.086l2.086,3.409h-1.619l-1.9-3.335h-0.967
			v3.335h-1.547V199.229z M370.215,202.489h1.377c0.876,0,1.527-0.131,1.527-1.081c0-0.838-0.895-0.968-1.603-0.968h-1.302V202.489z
			"/>
	</g>
</g>
</svg>
